PathFileType	4	(x/y/z)	S06_M20_T24
DataRate	CameraRate	NumFrames	NumMarkers	Units	OrigDataRate	OrigDataStartFrame	OrigNumFrames
240	240	9	51	mm	240	361	481
Frame#	Time	Sternum			R.Acromium			L.Acromium			Top.Head			R.ASIS			L.ASIS			R.PSIS			L.PSIS			R.Great.Tro			L.Great.Tro			R.Iliac.Crest			L.Iliac.Crest			V.Sacral			R.Thigh.Upper.Post			R.Thigh.Lower.Ant			R.Thigh.Lower.Post			R.Thigh.Upper.Ant			R.Knee.Lat			R.Knee.Med			R.Shank.Upper.Post			R.Shank.Lower.Ant			R.Shank.Lower.Post			R.Shank.Upper.Ant			R.Ankle.Lat			R.Ankle.Med			R.Heel.Upper			R.Heel.Med			R.Heel.Lat			R.Toe.Lat			R.Toe.Med			R.Toe.Tip			L.Thigh.Upper.Post			L.Thigh.Lower.Ant			L.Thigh.Lower.Post			L.Thigh.Upper.Ant			L.Knee.Lat			L.Knee.Med			L.Shank.Upper.Post			L.Shank.Lower.Ant			L.Shank.Lower.Post			L.Shank.Upper.Ant			L.Ankle.Lat			L.Ankle.Med			L.Heel.Upper			L.Heel.Med			L.Heel.Lat			L.Toe.Lat			L.Toe.Med			L.Toe.Tip			Cervical.Spine			Back			
		X1	Y1	Z1	X2	Y2	Z2	X3	Y3	Z3	X4	Y4	Z4	X5	Y5	Z5	X6	Y6	Z6	X7	Y7	Z7	X8	Y8	Z8	X9	Y9	Z9	X10	Y10	Z10	X11	Y11	Z11	X12	Y12	Z12	X13	Y13	Z13	X14	Y14	Z14	X15	Y15	Z15	X16	Y16	Z16	X17	Y17	Z17	X18	Y18	Z18	X19	Y19	Z19	X20	Y20	Z20	X21	Y21	Z21	X22	Y22	Z22	X23	Y23	Z23	X24	Y24	Z24	X25	Y25	Z25	X26	Y26	Z26	X27	Y27	Z27	X28	Y28	Z28	X29	Y29	Z29	X30	Y30	Z30	X31	Y31	Z31	X32	Y32	Z32	X33	Y33	Z33	X34	Y34	Z34	X35	Y35	Z35	X36	Y36	Z36	X37	Y37	Z37	X38	Y38	Z38	X39	Y39	Z39	X40	Y40	Z40	X41	Y41	Z41	X42	Y42	Z42	X43	Y43	Z43	X44	Y44	Z44	X45	Y45	Z45	X46	Y46	Z46	X47	Y47	Z47	X48	Y48	Z48	X49	Y49	Z49	X50	Y50	Z50	X51	Y51	Z51	

361	1.5	387.3	1285.1	306.64	255.01	1492.8	469.13	239.54	1480.9	118.55	293.66	1803.2	281.39	338.58	1041.4	433.65	367.78	1049	181.13	149.9	1060.6	325.89	155.86	1064.1	244.9	271.79	963.8	476.24	281.86	971.49	119.8	255.09	1116.7	459.08	294.35	1116.7	139.77	138.53	1028.6	287.87	259.92	715.41	481.38	318.69	632.34	469.14	249.8	626.89	468.91	333.1	722.15	478.16	254.31	518.72	466.81	290.46	509.19	342.58	59.088	407.34	452.96	46.44	320.59	428.48	-2.9056	364.85	432.67	107.79	363.24	448.58	-83.604	264.41	403.07	-61.261	255.57	316.73	-128.28	306.93	351.64	-150.98	294.17	316.34	-160.93	288.38	380.59	-129.27	112.33	407.93	-93.885	103.72	294.11	-66.411	40.897	336.32	387.53	720.15	155.47	438.82	654.12	227.16	379.79	632.05	179.1	441.45	745.49	198.23	383.03	539.57	198.28	391.33	555.12	319.71	360.02	308.05	214.44	428.8	253.03	228.95	359.37	237.16	234.98	424.98	322.89	213.38	418.87	103.9	247.87	416.2	128.03	334.76	337.47	71.614	288.57	340.38	45.246	321.28	345.89	45.834	259.65	528.2	45.847	238.62	536.49	46.183	359.46	612.56	62.848	311.57	193.27	1537.5	294.93	145.07	1261.7	301.12
362	1.5042	392.26	1285.6	306.95	259.74	1493.3	469.23	245.09	1481.5	118.58	299.26	1803.8	281.57	343.51	1042	433.69	372.9	1049.6	181.13	154.85	1061	325.56	160.91	1064.7	244.61	277.16	964.38	476.22	287	972.18	119.67	259.8	1117.2	458.98	299.48	1117.4	139.76	143.56	1029.2	287.5	269	715.9	482.05	328.62	633.5	469.59	259.78	627.25	469.76	342.1	723.44	478.27	265.43	519.29	467.72	301.03	509.93	343.21	70.191	408.22	454.29	57.412	321.55	429.57	8.0868	365.84	434.08	118.86	364.09	449.6	-73.053	266.01	404.28	-50.638	256.63	318.11	-118.45	307.69	352.26	-140.95	294.22	317.09	-150.84	289.07	381.39	-117.09	113.96	410.83	-81.664	104.27	297.09	-53.624	42.077	340.1	391.26	720.4	155.46	442.22	654.07	227.05	383.07	632.32	179.07	445.27	745.42	198.13	385.72	539.76	198.31	394.18	555.26	319.68	361.36	308.33	214.66	429.87	252.93	229	360.36	237.45	235.25	426.4	322.8	213.41	419.17	103.96	248.09	416.61	128.02	334.93	337.57	71.736	288.67	340.44	45.32	321.35	345.96	45.993	259.71	528.29	45.791	238.68	536.68	45.658	359.63	612.82	62.019	311.72	198.43	1538.1	294.89	150.06	1262.4	300.79
363	1.5083	397.2	1286.1	307.27	264.44	1493.9	469.34	250.6	1482.2	118.62	304.84	1804.4	281.76	348.44	1042.7	433.74	377.98	1050.2	181.13	159.78	1061.6	325.24	165.94	1065.3	244.33	282.52	964.99	476.2	292.1	972.87	119.56	264.5	1117.7	458.88	304.57	1118.1	139.76	148.57	1029.7	287.14	278.08	716.48	482.71	338.53	634.74	469.99	269.76	627.71	470.59	351.1	724.81	478.33	276.52	519.97	468.57	311.56	510.76	343.79	81.316	409.08	455.53	68.471	322.48	430.64	19.139	366.76	435.42	129.98	364.96	450.58	-62.365	267.42	405.46	-39.879	257.54	319.49	-108.55	308.21	352.87	-130.85	293.97	317.84	-140.65	289.48	382.19	-104.54	115.4	413.75	-69.091	104.67	300.08	-40.376	43.241	343.89	394.92	720.65	155.47	445.53	654.02	226.95	386.28	632.6	179.05	449.02	745.35	198.04	388.31	539.95	198.34	396.93	555.39	319.65	362.62	308.61	214.87	430.87	252.84	229.03	361.29	237.73	235.51	427.74	322.71	213.44	419.45	104.04	248.28	416.99	128.02	335.08	337.65	71.853	288.76	340.49	45.392	321.41	346.02	46.142	259.76	528.38	45.749	238.72	536.85	45.193	359.78	613.05	61.273	311.83	203.57	1538.9	294.85	155.03	1263.1	300.46
364	1.5125	402.1	1286.6	307.58	269.1	1494.4	469.45	256.07	1482.9	118.66	310.42	1805.1	281.99	353.36	1043.4	433.79	383.02	1050.9	181.15	164.7	1062.1	324.94	170.94	1065.9	244.06	287.88	965.64	476.2	297.16	973.57	119.47	269.17	1118.2	458.78	309.64	1118.9	139.75	153.56	1030.3	286.8	287.17	717.14	483.35	348.43	636.08	470.34	279.73	628.27	471.39	360.08	726.25	478.35	287.57	520.74	469.37	322.06	511.7	344.33	92.461	409.93	456.7	79.615	323.36	431.68	30.25	367.6	436.69	141.15	365.85	451.54	-51.539	268.63	406.63	-28.982	258.28	320.87	-98.58	308.47	353.49	-120.66	293.45	318.6	-130.34	289.6	383	-91.639	116.64	416.68	-56.196	104.93	303.06	-26.709	44.371	347.67	398.51	720.91	155.49	448.77	653.95	226.85	389.43	632.9	179.02	452.71	745.27	197.95	390.8	540.14	198.35	399.6	555.5	319.62	363.82	308.88	215.07	431.81	252.76	229.05	362.17	238.02	235.75	429.02	322.63	213.45	419.68	104.11	248.46	417.34	128.03	335.22	337.72	71.966	288.85	340.54	45.462	321.47	346.08	46.284	259.81	528.45	45.719	238.76	537	44.786	359.9	613.26	60.607	311.93	208.68	1539.6	294.81	159.97	1263.8	300.12
365	1.5167	406.98	1287.2	307.89	273.75	1494.9	469.56	261.5	1483.5	118.71	315.99	1805.7	282.23	358.28	1044.1	433.83	388.02	1051.5	181.18	169.61	1062.6	324.67	175.92	1066.5	243.82	293.23	966.32	476.2	302.18	974.27	119.39	273.84	1118.8	458.69	314.67	1119.6	139.75	158.54	1030.9	286.48	296.25	717.88	483.97	358.3	637.5	470.64	289.7	628.93	472.16	369.03	727.76	478.31	298.59	521.62	470.11	332.53	512.73	344.82	103.63	410.75	457.78	90.841	324.18	432.71	41.418	368.35	437.89	152.37	366.74	452.47	-40.572	269.64	407.78	-17.949	258.86	322.24	-88.518	308.47	354.13	-110.38	292.66	319.4	-119.92	289.44	383.85	-78.423	117.69	419.61	-43.006	105.04	306.03	-12.664	45.449	351.4	402.04	721.17	155.51	451.95	653.88	226.75	392.51	633.2	179	456.35	745.18	197.86	393.19	540.33	198.36	402.17	555.61	319.59	364.96	309.16	215.25	432.71	252.69	229.05	363	238.3	235.98	430.23	322.55	213.44	419.89	104.19	248.62	417.66	128.06	335.33	337.79	72.074	288.93	340.58	45.531	321.53	346.13	46.417	259.86	528.51	45.698	238.78	537.15	44.433	360.01	613.45	60.014	312	213.77	1540.3	294.78	164.89	1264.5	299.79
366	1.5208	411.83	1287.8	308.19	278.37	1495.5	469.68	266.9	1484.2	118.76	321.54	1806.3	282.49	363.19	1044.9	433.87	392.97	1052.1	181.21	174.5	1063.2	324.42	180.88	1067.2	243.6	298.59	967.04	476.21	307.15	974.96	119.33	278.51	1119.4	458.61	319.68	1120.4	139.76	163.51	1031.5	286.19	305.32	718.7	484.57	368.14	639	470.88	299.64	629.67	472.91	377.95	729.35	478.23	309.56	522.59	470.79	342.95	513.85	345.26	114.81	411.53	458.78	102.15	324.95	433.73	52.641	369.01	439.04	163.63	367.63	453.37	-29.465	270.44	408.93	-6.781	259.25	323.62	-78.354	308.22	354.81	-99.984	291.6	320.24	-109.37	289	384.74	-64.912	118.54	422.53	-29.549	105.01	308.98	1.7211	46.461	355.08	405.5	721.44	155.55	455.06	653.8	226.65	395.52	633.51	178.97	459.93	745.08	197.77	395.5	540.53	198.36	404.65	555.72	319.57	366.05	309.43	215.41	433.55	252.63	229.03	363.78	238.59	236.19	431.38	322.49	213.42	420.08	104.27	248.76	417.96	128.09	335.43	337.85	72.179	289	340.62	45.599	321.58	346.18	46.542	259.9	528.56	45.683	238.8	537.28	44.129	360.1	613.61	59.489	312.06	218.83	1541	294.76	169.78	1265.3	299.46
367	1.525	416.66	1288.3	308.48	282.97	1496.1	469.79	272.26	1484.9	118.83	327.08	1806.9	282.77	368.11	1045.7	433.9	397.89	1052.8	181.25	179.38	1063.7	324.2	185.82	1067.8	243.4	303.95	967.79	476.23	312.08	975.65	119.28	283.17	1120	458.53	324.65	1121.1	139.76	168.46	1032.1	285.93	314.37	719.59	485.16	377.94	640.58	471.08	309.56	630.51	473.63	386.83	731	478.11	320.49	523.65	471.41	353.33	515.06	345.65	126	412.28	459.71	113.54	325.65	434.74	63.917	369.57	440.13	174.93	368.51	454.25	-18.214	271.01	410.07	4.5216	259.47	325	-68.076	307.72	355.52	-89.472	290.3	321.14	-98.68	288.29	385.68	-51.127	119.19	425.43	-15.851	104.85	311.89	16.413	47.394	358.67	408.91	721.71	155.58	458.11	653.72	226.56	398.48	633.83	178.95	463.47	744.98	197.68	397.73	540.72	198.35	407.06	555.82	319.54	367.09	309.7	215.55	434.36	252.59	229.01	364.54	238.87	236.36	432.49	322.44	213.39	420.24	104.36	248.88	418.24	128.14	335.52	337.9	72.28	289.06	340.65	45.666	321.63	346.22	46.66	259.94	528.61	45.673	238.81	537.4	43.872	360.18	613.76	59.027	312.1	223.87	1541.7	294.74	174.66	1266	299.13
368	1.5292	421.46	1288.9	308.77	287.56	1496.6	469.91	277.59	1485.7	118.9	332.6	1807.6	283.07	373.04	1046.5	433.91	402.77	1053.4	181.28	184.26	1064.3	324.01	190.73	1068.5	243.24	309.31	968.57	476.25	316.95	976.34	119.25	287.83	1120.6	458.45	329.58	1121.9	139.77	173.4	1032.7	285.71	323.39	720.55	485.71	387.71	642.23	471.22	319.45	631.43	474.31	395.67	732.72	477.96	331.36	524.79	471.98	363.66	516.35	346	137.21	412.98	460.57	125	326.28	435.73	75.244	370.03	441.16	186.28	369.38	455.1	-6.8211	271.36	411.21	15.957	259.51	326.39	-57.676	306.97	356.29	-78.834	288.75	322.1	-87.847	287.32	386.69	-37.091	119.64	428.3	-1.9322	104.54	314.76	31.38	48.239	362.17	412.26	721.99	155.62	461.11	653.64	226.47	401.37	634.15	178.92	466.97	744.86	197.58	399.87	540.92	198.33	409.39	555.91	319.52	368.09	309.97	215.66	435.14	252.55	228.97	365.26	239.16	236.51	433.55	322.4	213.35	420.38	104.45	248.98	418.5	128.2	335.58	337.94	72.378	289.11	340.68	45.733	321.68	346.26	46.77	259.98	528.65	45.666	238.82	537.5	43.656	360.23	613.89	58.62	312.13	228.88	1542.4	294.73	179.51	1266.7	298.82
369	1.5333	426.25	1289.6	309.04	292.14	1497.2	470.02	282.88	1486.4	118.97	338.11	1808.2	283.39	377.96	1047.3	433.92	407.61	1054.1	181.31	189.12	1064.9	323.85	195.62	1069.2	243.11	314.68	969.38	476.28	321.78	977.01	119.23	292.51	1121.3	458.39	334.48	1122.6	139.78	178.32	1033.3	285.52	332.38	721.58	486.24	397.42	643.94	471.32	329.3	632.42	474.95	404.45	734.5	477.77	342.17	526	472.49	373.94	517.72	346.3	148.44	413.62	461.37	136.54	326.84	436.72	86.622	370.38	442.15	197.66	370.23	455.94	4.7154	271.48	412.36	27.524	259.36	327.77	-47.147	305.96	357.12	-68.064	286.96	323.12	-76.864	286.09	387.75	-22.82	119.9	431.14	12.188	104.09	317.58	46.596	48.988	365.57	415.56	722.27	155.67	464.05	653.55	226.39	404.2	634.48	178.89	470.43	744.75	197.48	401.95	541.12	198.3	411.64	556.01	319.49	369.06	310.24	215.74	435.88	252.53	228.93	365.96	239.44	236.63	434.57	322.37	213.3	420.5	104.54	249.06	418.74	128.27	335.63	337.98	72.473	289.16	340.71	45.798	321.71	346.3	46.873	260	528.69	45.661	238.82	537.6	43.477	360.27	614	58.265	312.15	233.88	1543.1	294.72	184.34	1267.5	298.51
